<mxfile host="app.diagrams.net" modified="2022-05-25T11:53:21.182Z" agent="5.0 (Macintosh; Intel Mac OS X 10_15_7) AppleWebKit/537.36 (KHTML, like Gecko) Chrome/101.0.4951.64 Safari/537.36" etag="HceTQAiU56uV37n5h8gW" version="18.1.1" type="github">
  <diagram id="wPON_E_mZdpVFNTxD3b0" name="Page-1">
    <mxGraphModel dx="1455" dy="857" grid="1" gridSize="10" guides="1" tooltips="1" connect="1" arrows="1" fold="1" page="1" pageScale="1" pageWidth="827" pageHeight="1169" math="0" shadow="0">
      <root>
        <mxCell id="0" />
        <mxCell id="1" parent="0" />
        <mxCell id="vlENnQTwprv_Hxl43TQ9-1" value="&lt;div style=&quot;font-size: 1px&quot;&gt;&lt;font style=&quot;font-size:11.29px;font-family:Arial;color:#000000;direction:ltr;letter-spacing:0px;line-height:120%;opacity:1&quot;&gt;&lt;i&gt;Изм.&lt;br/&gt;&lt;/i&gt;&lt;/font&gt;&lt;/div&gt;" style="verticalAlign=middle;align=center;vsdxID=114;fillColor=none;gradientColor=none;shape=stencil(nZBLDoAgDERP0z3SIyjew0SURgSD+Lu9kMZoXLhwN9O+tukAlrNpJg1SzDH4QW/URgNYgZTkjA4UkwJUgGXng+6DX1zLfmoymdXo17xh5zmRJ6Q42BWCfc2oJfdAr+Yv+AP9Cb7OJ3H/2JG1HNGz/84klThPVCc=);strokeColor=none;strokeWidth=4;spacingLeft=-3;spacingRight=-3;points=[];labelBackgroundColor=none;rounded=0;html=1;whiteSpace=wrap;" parent="1" vertex="1">
          <mxGeometry x="78" y="1018" width="28" height="20" as="geometry" />
        </mxCell>
        <mxCell id="vlENnQTwprv_Hxl43TQ9-2" value="&lt;div style=&quot;font-size: 1px&quot;&gt;&lt;font style=&quot;font-size:11.29px;font-family:Arial;color:#000000;direction:ltr;letter-spacing:0px;line-height:120%;opacity:1&quot;&gt;&lt;i&gt;Лист&lt;br/&gt;&lt;/i&gt;&lt;/font&gt;&lt;/div&gt;" style="verticalAlign=middle;align=center;vsdxID=115;fillColor=none;gradientColor=none;shape=stencil(nZBLDoAgDERP0z3SIyjew0SURgSD+Lu9kMZoXLhwN9O+tukAlrNpJg1SzDH4QW/URgNYgZTkjA4UkwJUgGXng+6DX1zLfmoymdXo17xh5zmRJ6Q42BWCfc2oJfdAr+Yv+AP9Cb7OJ3H/2JG1HNGz/84klThPVCc=);strokeColor=none;strokeWidth=4;points=[];labelBackgroundColor=none;rounded=0;html=1;whiteSpace=wrap;" parent="1" vertex="1">
          <mxGeometry x="102" y="1018" width="48" height="20" as="geometry" />
        </mxCell>
        <mxCell id="vlENnQTwprv_Hxl43TQ9-3" value="&lt;div style=&quot;font-size: 1px&quot;&gt;&lt;font style=&quot;font-size:11.29px;font-family:Arial;color:#000000;direction:ltr;letter-spacing:0px;line-height:120%;opacity:1&quot;&gt;&lt;i&gt;№ докум.&lt;br/&gt;&lt;/i&gt;&lt;/font&gt;&lt;/div&gt;" style="verticalAlign=middle;align=center;vsdxID=116;fillColor=none;gradientColor=none;shape=stencil(nZBLDoAgDERP0z3SIyjew0SURgSD+Lu9kMZoXLhwN9O+tukAlrNpJg1SzDH4QW/URgNYgZTkjA4UkwJUgGXng+6DX1zLfmoymdXo17xh5zmRJ6Q42BWCfc2oJfdAr+Yv+AP9Cb7OJ3H/2JG1HNGz/84klThPVCc=);strokeColor=none;strokeWidth=4;points=[];labelBackgroundColor=none;rounded=0;html=1;whiteSpace=wrap;" parent="1" vertex="1">
          <mxGeometry x="146" y="1018" width="92" height="20" as="geometry" />
        </mxCell>
        <mxCell id="vlENnQTwprv_Hxl43TQ9-4" value="&lt;div style=&quot;font-size: 1px&quot;&gt;&lt;font style=&quot;font-size:11.29px;font-family:Arial;color:#000000;direction:ltr;letter-spacing:0px;line-height:120%;opacity:1&quot;&gt;&lt;i&gt;Подп.&lt;br/&gt;&lt;/i&gt;&lt;/font&gt;&lt;/div&gt;" style="verticalAlign=middle;align=center;vsdxID=117;fillColor=none;gradientColor=none;shape=stencil(nZBLDoAgDERP0z3SIyjew0SURgSD+Lu9kMZoXLhwN9O+tukAlrNpJg1SzDH4QW/URgNYgZTkjA4UkwJUgGXng+6DX1zLfmoymdXo17xh5zmRJ6Q42BWCfc2oJfdAr+Yv+AP9Cb7OJ3H/2JG1HNGz/84klThPVCc=);strokeColor=none;strokeWidth=4;points=[];labelBackgroundColor=none;rounded=0;html=1;whiteSpace=wrap;" parent="1" vertex="1">
          <mxGeometry x="238" y="1018" width="60" height="20" as="geometry" />
        </mxCell>
        <mxCell id="vlENnQTwprv_Hxl43TQ9-5" value="&lt;div style=&quot;font-size: 1px&quot;&gt;&lt;font style=&quot;font-size:11.29px;font-family:Arial;color:#000000;direction:ltr;letter-spacing:0px;line-height:120%;opacity:1&quot;&gt;&lt;i&gt;Дата&lt;br/&gt;&lt;/i&gt;&lt;/font&gt;&lt;/div&gt;" style="verticalAlign=middle;align=center;vsdxID=118;fillColor=none;gradientColor=none;shape=stencil(nZBLDoAgDERP0z3SIyjew0SURgSD+Lu9kMZoXLhwN9O+tukAlrNpJg1SzDH4QW/URgNYgZTkjA4UkwJUgGXng+6DX1zLfmoymdXo17xh5zmRJ6Q42BWCfc2oJfdAr+Yv+AP9Cb7OJ3H/2JG1HNGz/84klThPVCc=);strokeColor=none;strokeWidth=4;points=[];labelBackgroundColor=none;rounded=0;html=1;whiteSpace=wrap;" parent="1" vertex="1">
          <mxGeometry x="294" y="1018" width="48" height="20" as="geometry" />
        </mxCell>
        <mxCell id="vlENnQTwprv_Hxl43TQ9-6" value="&lt;div style=&quot;font-size: 1px&quot;&gt;&lt;p style=&quot;align:left;margin-left:0;margin-right:0;margin-top:0px;margin-bottom:0px;text-indent:0;valign:middle;direction:ltr;&quot;&gt;&lt;font style=&quot;font-size: 12.7px; font-family: &amp;quot;Arial Narrow&amp;quot;; direction: ltr; letter-spacing: 0px; line-height: 120%; opacity: 1;&quot;&gt;&lt;i style=&quot;&quot;&gt;Лиходиевский&lt;/i&gt;&lt;/font&gt;&lt;font style=&quot;font-size:8.47px;font-family:Arial;color:#ff0000;direction:ltr;letter-spacing:0px;line-height:120%;opacity:1&quot;&gt;&lt;i&gt;&lt;br&gt;&lt;/i&gt;&lt;/font&gt;&lt;/p&gt;&lt;/div&gt;" style="verticalAlign=middle;align=left;vsdxID=119;fillColor=none;gradientColor=none;shape=stencil(nZBLDoAgDERP0z3SIyjew0SURgSD+Lu9kMZoXLhwN9O+tukAlrNpJg1SzDH4QW/URgNYgZTkjA4UkwJUgGXng+6DX1zLfmoymdXo17xh5zmRJ6Q42BWCfc2oJfdAr+Yv+AP9Cb7OJ3H/2JG1HNGz/84klThPVCc=);strokeColor=none;strokeWidth=4;points=[];labelBackgroundColor=none;rounded=0;html=1;whiteSpace=wrap;" parent="1" vertex="1">
          <mxGeometry x="148" y="1038" width="90" height="20" as="geometry" />
        </mxCell>
        <mxCell id="vlENnQTwprv_Hxl43TQ9-7" value="&lt;div style=&quot;font-size: 1px&quot;&gt;&lt;font style=&quot;font-size:11.29px;font-family:Arial;color:#000000;direction:ltr;letter-spacing:0px;line-height:120%;opacity:1&quot;&gt;&lt;i&gt;Лит.&lt;br/&gt;&lt;/i&gt;&lt;/font&gt;&lt;/div&gt;" style="verticalAlign=middle;align=center;vsdxID=120;fillColor=none;gradientColor=none;shape=stencil(nZBLDoAgDERP0z3SIyjew0SURgSD+Lu9kMZoXLhwN9O+tukAlrNpJg1SzDH4QW/URgNYgZTkjA4UkwJUgGXng+6DX1zLfmoymdXo17xh5zmRJ6Q42BWCfc2oJfdAr+Yv+AP9Cb7OJ3H/2JG1HNGz/84klThPVCc=);strokeColor=none;strokeWidth=4;points=[];labelBackgroundColor=none;rounded=0;html=1;whiteSpace=wrap;" parent="1" vertex="1">
          <mxGeometry x="618" y="998" width="60" height="20" as="geometry" />
        </mxCell>
        <mxCell id="vlENnQTwprv_Hxl43TQ9-8" value="&lt;div style=&quot;font-size: 1px&quot;&gt;&lt;font style=&quot;font-size:11.29px;font-family:Arial;color:#000000;direction:ltr;letter-spacing:0px;line-height:120%;opacity:1&quot;&gt;&lt;i&gt;Лист&lt;br/&gt;&lt;/i&gt;&lt;/font&gt;&lt;/div&gt;" style="verticalAlign=middle;align=center;vsdxID=121;fillColor=none;gradientColor=none;shape=stencil(nZBLDoAgDERP0z3SIyjew0SURgSD+Lu9kMZoXLhwN9O+tukAlrNpJg1SzDH4QW/URgNYgZTkjA4UkwJUgGXng+6DX1zLfmoymdXo17xh5zmRJ6Q42BWCfc2oJfdAr+Yv+AP9Cb7OJ3H/2JG1HNGz/84klThPVCc=);strokeColor=none;strokeWidth=4;spacingLeft=-3;spacingRight=-3;points=[];labelBackgroundColor=none;rounded=0;html=1;whiteSpace=wrap;" parent="1" vertex="1">
          <mxGeometry x="618" y="1078" width="50" height="20" as="geometry" />
        </mxCell>
        <mxCell id="vlENnQTwprv_Hxl43TQ9-9" value="&lt;div style=&quot;font-size: 1px&quot;&gt;&lt;font style=&quot;font-size:11.29px;font-family:Arial;color:#000000;direction:ltr;letter-spacing:0px;line-height:120%;opacity:1&quot;&gt;&lt;i&gt;Листов&lt;br/&gt;&lt;/i&gt;&lt;/font&gt;&lt;/div&gt;" style="verticalAlign=middle;align=center;vsdxID=122;fillColor=none;gradientColor=none;shape=stencil(nZBLDoAgDERP0z3SIyjew0SURgSD+Lu9kMZoXLhwN9O+tukAlrNpJg1SzDH4QW/URgNYgZTkjA4UkwJUgGXng+6DX1zLfmoymdXo17xh5zmRJ6Q42BWCfc2oJfdAr+Yv+AP9Cb7OJ3H/2JG1HNGz/84klThPVCc=);strokeColor=none;strokeWidth=4;points=[];labelBackgroundColor=none;rounded=0;html=1;whiteSpace=wrap;" parent="1" vertex="1">
          <mxGeometry x="698" y="1078" width="60" height="20" as="geometry" />
        </mxCell>
        <mxCell id="vlENnQTwprv_Hxl43TQ9-10" value="&lt;div style=&quot;font-size: 1px&quot;&gt;&lt;font style=&quot;font-size:11.29px;font-family:Arial;color:#000000;direction:ltr;letter-spacing:0px;line-height:120%;opacity:1&quot;&gt;&lt;i&gt;Т&lt;br/&gt;&lt;/i&gt;&lt;/font&gt;&lt;/div&gt;" style="verticalAlign=middle;align=center;vsdxID=123;fillColor=none;gradientColor=none;shape=stencil(nZBLDoAgDERP0z3SIyjew0SURgSD+Lu9kMZoXLhwN9O+tukAlrNpJg1SzDH4QW/URgNYgZTkjA4UkwJUgGXng+6DX1zLfmoymdXo17xh5zmRJ6Q42BWCfc2oJfdAr+Yv+AP9Cb7OJ3H/2JG1HNGz/84klThPVCc=);strokeColor=none;strokeWidth=4;points=[];labelBackgroundColor=none;rounded=0;html=1;whiteSpace=wrap;" parent="1" vertex="1">
          <mxGeometry x="638" y="1038" width="20" height="20" as="geometry" />
        </mxCell>
        <mxCell id="vlENnQTwprv_Hxl43TQ9-11" value="&lt;div style=&quot;font-size: 1px&quot;&gt;&lt;font style=&quot;font-size:11.29px;font-family:Arial;color:#000000;direction:ltr;letter-spacing:0px;line-height:120%;opacity:1&quot;&gt;&lt;i&gt;1&lt;br/&gt;&lt;/i&gt;&lt;/font&gt;&lt;/div&gt;" style="verticalAlign=middle;align=center;vsdxID=124;fillColor=none;gradientColor=none;shape=stencil(nZBLDoAgDERP0z3SIyjew0SURgSD+Lu9kMZoXLhwN9O+tukAlrNpJg1SzDH4QW/URgNYgZTkjA4UkwJUgGXng+6DX1zLfmoymdXo17xh5zmRJ6Q42BWCfc2oJfdAr+Yv+AP9Cb7OJ3H/2JG1HNGz/84klThPVCc=);strokeColor=none;strokeWidth=4;points=[];labelBackgroundColor=none;rounded=0;html=1;whiteSpace=wrap;" parent="1" vertex="1">
          <mxGeometry x="668" y="1078" width="30" height="20" as="geometry" />
        </mxCell>
        <mxCell id="vlENnQTwprv_Hxl43TQ9-12" value="&lt;div style=&quot;font-size: 1px&quot;&gt;&lt;font style=&quot;font-size:11.29px;font-family:Arial;color:#000000;direction:ltr;letter-spacing:0px;line-height:120%;opacity:1&quot;&gt;&lt;i&gt;1&lt;br/&gt;&lt;/i&gt;&lt;/font&gt;&lt;/div&gt;" style="verticalAlign=middle;align=center;vsdxID=125;fillColor=none;gradientColor=none;shape=stencil(nZBLDoAgDERP0z3SIyjew0SURgSD+Lu9kMZoXLhwN9O+tukAlrNpJg1SzDH4QW/URgNYgZTkjA4UkwJUgGXng+6DX1zLfmoymdXo17xh5zmRJ6Q42BWCfc2oJfdAr+Yv+AP9Cb7OJ3H/2JG1HNGz/84klThPVCc=);strokeColor=none;strokeWidth=4;points=[];labelBackgroundColor=none;rounded=0;html=1;whiteSpace=wrap;" parent="1" vertex="1">
          <mxGeometry x="758" y="1078" width="60" height="20" as="geometry" />
        </mxCell>
        <mxCell id="vlENnQTwprv_Hxl43TQ9-13" style="vsdxID=126;edgeStyle=none;startArrow=none;endArrow=none;startSize=5;endSize=5;strokeWidth=3;strokeColor=#000000;spacingTop=0;spacingBottom=0;spacingLeft=0;spacingRight=0;verticalAlign=middle;html=1;labelBackgroundColor=none;rounded=0;" parent="1" edge="1">
          <mxGeometry relative="1" as="geometry">
            <mxPoint as="offset" />
            <Array as="points" />
            <mxPoint x="618" y="1018" as="sourcePoint" />
            <mxPoint x="818" y="1018" as="targetPoint" />
          </mxGeometry>
        </mxCell>
        <mxCell id="vlENnQTwprv_Hxl43TQ9-14" style="vsdxID=127;edgeStyle=none;startArrow=none;endArrow=none;startSize=5;endSize=5;strokeWidth=3;strokeColor=#000000;spacingTop=0;spacingBottom=0;spacingLeft=0;spacingRight=0;verticalAlign=middle;html=1;labelBackgroundColor=none;rounded=0;" parent="1" edge="1">
          <mxGeometry relative="1" as="geometry">
            <Array as="points" />
            <mxPoint x="678" y="1078" as="sourcePoint" />
            <mxPoint x="678" y="998" as="targetPoint" />
          </mxGeometry>
        </mxCell>
        <mxCell id="vlENnQTwprv_Hxl43TQ9-15" style="vsdxID=128;edgeStyle=none;startArrow=none;endArrow=none;startSize=5;endSize=5;strokeColor=#000000;spacingTop=0;spacingBottom=0;spacingLeft=0;spacingRight=0;verticalAlign=middle;html=1;labelBackgroundColor=none;rounded=0;" parent="1" edge="1">
          <mxGeometry relative="1" as="geometry">
            <Array as="points" />
            <mxPoint x="658" y="1018" as="sourcePoint" />
            <mxPoint x="658" y="1078" as="targetPoint" />
          </mxGeometry>
        </mxCell>
        <mxCell id="vlENnQTwprv_Hxl43TQ9-16" style="vsdxID=129;edgeStyle=none;startArrow=none;endArrow=none;startSize=5;endSize=5;strokeWidth=3;strokeColor=#000000;spacingTop=0;spacingBottom=0;spacingLeft=0;spacingRight=0;verticalAlign=middle;html=1;labelBackgroundColor=none;rounded=0;" parent="1" edge="1">
          <mxGeometry relative="1" as="geometry">
            <Array as="points" />
            <mxPoint x="698" y="1098" as="sourcePoint" />
            <mxPoint x="698" y="1078" as="targetPoint" />
          </mxGeometry>
        </mxCell>
        <mxCell id="vlENnQTwprv_Hxl43TQ9-17" style="vsdxID=130;edgeStyle=none;startArrow=none;endArrow=none;startSize=5;endSize=5;strokeWidth=3;strokeColor=#000000;spacingTop=0;spacingBottom=0;spacingLeft=0;spacingRight=0;verticalAlign=middle;html=1;labelBackgroundColor=none;rounded=0;" parent="1" edge="1">
          <mxGeometry relative="1" as="geometry">
            <Array as="points" />
            <mxPoint x="746" y="1078" as="sourcePoint" />
            <mxPoint x="746" y="998" as="targetPoint" />
          </mxGeometry>
        </mxCell>
        <mxCell id="vlENnQTwprv_Hxl43TQ9-18" value="&lt;div style=&quot;font-size: 1px&quot;&gt;&lt;font style=&quot;font-size:11.29px;font-family:Arial;color:#000000;direction:ltr;letter-spacing:0px;line-height:120%;opacity:1&quot;&gt;&lt;i&gt;Масса&lt;br/&gt;&lt;/i&gt;&lt;/font&gt;&lt;/div&gt;" style="verticalAlign=middle;align=center;vsdxID=131;fillColor=none;gradientColor=none;shape=stencil(nZBLDoAgDERP0z3SIyjew0SURgSD+Lu9kMZoXLhwN9O+tukAlrNpJg1SzDH4QW/URgNYgZTkjA4UkwJUgGXng+6DX1zLfmoymdXo17xh5zmRJ6Q42BWCfc2oJfdAr+Yv+AP9Cb7OJ3H/2JG1HNGz/84klThPVCc=);strokeColor=none;strokeWidth=4;points=[];labelBackgroundColor=none;rounded=0;html=1;whiteSpace=wrap;" parent="1" vertex="1">
          <mxGeometry x="678" y="998" width="68" height="20" as="geometry" />
        </mxCell>
        <mxCell id="vlENnQTwprv_Hxl43TQ9-19" value="&lt;div style=&quot;font-size: 1px&quot;&gt;&lt;font style=&quot;font-size:11.29px;font-family:Arial;color:#000000;direction:ltr;letter-spacing:0px;line-height:120%;opacity:1&quot;&gt;&lt;i&gt;Масштаб&lt;br/&gt;&lt;/i&gt;&lt;/font&gt;&lt;/div&gt;" style="verticalAlign=middle;align=center;vsdxID=132;fillColor=none;gradientColor=none;shape=stencil(nZBLDoAgDERP0z3SIyjew0SURgSD+Lu9kMZoXLhwN9O+tukAlrNpJg1SzDH4QW/URgNYgZTkjA4UkwJUgGXng+6DX1zLfmoymdXo17xh5zmRJ6Q42BWCfc2oJfdAr+Yv+AP9Cb7OJ3H/2JG1HNGz/84klThPVCc=);strokeColor=none;strokeWidth=4;points=[];labelBackgroundColor=none;rounded=0;html=1;whiteSpace=wrap;" parent="1" vertex="1">
          <mxGeometry x="746" y="998" width="72" height="20" as="geometry" />
        </mxCell>
        <mxCell id="vlENnQTwprv_Hxl43TQ9-20" value="&lt;div style=&quot;font-size: 1px&quot;&gt;&lt;/div&gt;" style="vsdxID=133;edgeStyle=none;startArrow=none;endArrow=none;startSize=5;endSize=5;strokeColor=#000000;spacingTop=0;spacingBottom=0;spacingLeft=0;spacingRight=0;verticalAlign=middle;html=1;labelBackgroundColor=none;rounded=0;align=center;" parent="1" edge="1">
          <mxGeometry relative="1" as="geometry">
            <mxPoint as="offset" />
            <Array as="points" />
            <mxPoint x="78" y="978" as="sourcePoint" />
            <mxPoint x="338" y="978" as="targetPoint" />
          </mxGeometry>
        </mxCell>
        <mxCell id="vlENnQTwprv_Hxl43TQ9-21" value="&lt;div style=&quot;font-size: 1px&quot;&gt;&lt;/div&gt;" style="vsdxID=134;edgeStyle=none;startArrow=none;endArrow=none;startSize=5;endSize=5;strokeColor=#000000;spacingTop=0;spacingBottom=0;spacingLeft=0;spacingRight=0;verticalAlign=middle;html=1;labelBackgroundColor=none;rounded=0;align=center;" parent="1" edge="1">
          <mxGeometry relative="1" as="geometry">
            <mxPoint as="offset" />
            <Array as="points" />
            <mxPoint x="78" y="998" as="sourcePoint" />
            <mxPoint x="338" y="998" as="targetPoint" />
          </mxGeometry>
        </mxCell>
        <mxCell id="vlENnQTwprv_Hxl43TQ9-22" style="vsdxID=135;edgeStyle=none;startArrow=none;endArrow=none;startSize=5;endSize=5;strokeWidth=3;strokeColor=#000000;spacingTop=0;spacingBottom=0;spacingLeft=0;spacingRight=0;verticalAlign=middle;html=1;labelBackgroundColor=none;rounded=0;" parent="1" edge="1">
          <mxGeometry relative="1" as="geometry">
            <Array as="points" />
            <mxPoint x="338" y="1018" as="sourcePoint" />
            <mxPoint x="78" y="1018" as="targetPoint" />
          </mxGeometry>
        </mxCell>
        <mxCell id="vlENnQTwprv_Hxl43TQ9-23" style="vsdxID=136;edgeStyle=none;startArrow=none;endArrow=none;startSize=5;endSize=5;strokeWidth=3;strokeColor=#000000;spacingTop=0;spacingBottom=0;spacingLeft=0;spacingRight=0;verticalAlign=middle;html=1;labelBackgroundColor=none;rounded=0;" parent="1" edge="1">
          <mxGeometry relative="1" as="geometry">
            <Array as="points" />
            <mxPoint x="338" y="1038" as="sourcePoint" />
            <mxPoint x="78" y="1038" as="targetPoint" />
          </mxGeometry>
        </mxCell>
        <mxCell id="vlENnQTwprv_Hxl43TQ9-24" style="vsdxID=137;edgeStyle=none;startArrow=none;endArrow=none;startSize=5;endSize=5;strokeColor=#000000;spacingTop=0;spacingBottom=0;spacingLeft=0;spacingRight=0;verticalAlign=middle;html=1;labelBackgroundColor=none;rounded=0;" parent="1" edge="1">
          <mxGeometry relative="1" as="geometry">
            <Array as="points" />
            <mxPoint x="78" y="1058" as="sourcePoint" />
            <mxPoint x="338" y="1058" as="targetPoint" />
          </mxGeometry>
        </mxCell>
        <mxCell id="vlENnQTwprv_Hxl43TQ9-25" value="&lt;div style=&quot;font-size: 1px&quot;&gt;&lt;/div&gt;" style="text;vsdxID=137;edgeStyle=none;startArrow=none;endArrow=none;startSize=5;endSize=5;strokeColor=none;spacingTop=0;spacingBottom=0;spacingLeft=0;spacingRight=0;verticalAlign=middle;html=1;labelBackgroundColor=none;rounded=0;align=center;fillColor=none;gradientColor=none;whiteSpace=wrap;;html=1;;rotation=359.99999999999994" parent="vlENnQTwprv_Hxl43TQ9-24" vertex="1">
          <mxGeometry width="260" height="1" relative="1" as="geometry">
            <mxPoint x="-130" y="-0.5" as="offset" />
          </mxGeometry>
        </mxCell>
        <mxCell id="vlENnQTwprv_Hxl43TQ9-26" value="&lt;div style=&quot;font-size: 1px&quot;&gt;&lt;font style=&quot;font-size:19.76px;font-family:Arial;color:#000000;direction:ltr;letter-spacing:0px;line-height:120%;opacity:1&quot;&gt;&lt;i&gt;ИКТ,&lt;br&gt;гр. &lt;/i&gt;&lt;/font&gt;&lt;font style=&quot;font-size: 19.76px; font-family: Arial; direction: ltr; letter-spacing: 0px; line-height: 120%; opacity: 1;&quot;&gt;&lt;i style=&quot;&quot;&gt;060801&lt;/i&gt;&lt;/font&gt;&lt;font style=&quot;font-size:19.76px;font-family:Arial;color:#000000;direction:ltr;letter-spacing:0px;line-height:120%;opacity:1&quot;&gt;&lt;i&gt;&lt;br&gt;&lt;/i&gt;&lt;/font&gt;&lt;/div&gt;" style="verticalAlign=middle;align=center;vsdxID=139;fillColor=none;gradientColor=none;shape=stencil(nZBLDoAgDERP0z3SIyjew0SURgSD+Lu9kMZoXLhwN9O+tukAlrNpJg1SzDH4QW/URgNYgZTkjA4UkwJUgGXng+6DX1zLfmoymdXo17xh5zmRJ6Q42BWCfc2oJfdAr+Yv+AP9Cb7OJ3H/2JG1HNGz/84klThPVCc=);strokeColor=none;strokeWidth=4;points=[];labelBackgroundColor=none;rounded=0;html=1;whiteSpace=wrap;" parent="1" vertex="1">
          <mxGeometry x="618" y="1098" width="200" height="60" as="geometry" />
        </mxCell>
        <mxCell id="vlENnQTwprv_Hxl43TQ9-27" value="&lt;div style=&quot;font-size: 1px&quot;&gt;&lt;p style=&quot;align:left;margin-left:0;margin-right:0;margin-top:0px;margin-bottom:0px;text-indent:0;valign:middle;direction:ltr;&quot;&gt;&lt;font style=&quot;font-size:11.29px;font-family:Arial;color:#000000;direction:ltr;letter-spacing:0px;line-height:120%;opacity:1&quot;&gt;&lt;i&gt;Разраб.&lt;br/&gt;&lt;/i&gt;&lt;/font&gt;&lt;/p&gt;&lt;/div&gt;" style="verticalAlign=middle;align=left;vsdxID=140;fillColor=none;gradientColor=none;shape=stencil(nZBLDoAgDERP0z3SIyjew0SURgSD+Lu9kMZoXLhwN9O+tukAlrNpJg1SzDH4QW/URgNYgZTkjA4UkwJUgGXng+6DX1zLfmoymdXo17xh5zmRJ6Q42BWCfc2oJfdAr+Yv+AP9Cb7OJ3H/2JG1HNGz/84klThPVCc=);strokeColor=none;strokeWidth=4;points=[];labelBackgroundColor=none;rounded=0;html=1;whiteSpace=wrap;" parent="1" vertex="1">
          <mxGeometry x="78" y="1040" width="68" height="20" as="geometry" />
        </mxCell>
        <mxCell id="vlENnQTwprv_Hxl43TQ9-28" value="&lt;div style=&quot;font-size: 1px&quot;&gt;&lt;p style=&quot;align:left;margin-left:0;margin-right:0;margin-top:0px;margin-bottom:0px;text-indent:0;valign:middle;direction:ltr;&quot;&gt;&lt;font style=&quot;font-size:11.29px;font-family:Arial;color:#000000;direction:ltr;letter-spacing:0px;line-height:120%;opacity:1&quot;&gt;&lt;i&gt;Пров.&lt;br/&gt;&lt;/i&gt;&lt;/font&gt;&lt;/p&gt;&lt;/div&gt;" style="verticalAlign=middle;align=left;vsdxID=141;fillColor=none;gradientColor=none;shape=stencil(nZBLDoAgDERP0z3SIyjew0SURgSD+Lu9kMZoXLhwN9O+tukAlrNpJg1SzDH4QW/URgNYgZTkjA4UkwJUgGXng+6DX1zLfmoymdXo17xh5zmRJ6Q42BWCfc2oJfdAr+Yv+AP9Cb7OJ3H/2JG1HNGz/84klThPVCc=);strokeColor=none;strokeWidth=4;points=[];labelBackgroundColor=none;rounded=0;html=1;whiteSpace=wrap;" parent="1" vertex="1">
          <mxGeometry x="78" y="1058" width="68" height="20" as="geometry" />
        </mxCell>
        <mxCell id="vlENnQTwprv_Hxl43TQ9-29" value="&lt;div style=&quot;font-size: 1px&quot;&gt;&lt;p style=&quot;align:left;margin-left:0;margin-right:0;margin-top:0px;margin-bottom:0px;text-indent:0;valign:middle;direction:ltr;&quot;&gt;&lt;font style=&quot;font-size:11.29px;font-family:Arial;color:#000000;direction:ltr;letter-spacing:0px;line-height:120%;opacity:1&quot;&gt;&lt;i&gt;Н. контр.&lt;br/&gt;&lt;/i&gt;&lt;/font&gt;&lt;/p&gt;&lt;/div&gt;" style="verticalAlign=middle;align=left;vsdxID=142;fillColor=none;gradientColor=none;shape=stencil(nZBLDoAgDERP0z3SIyjew0SURgSD+Lu9kMZoXLhwN9O+tukAlrNpJg1SzDH4QW/URgNYgZTkjA4UkwJUgGXng+6DX1zLfmoymdXo17xh5zmRJ6Q42BWCfc2oJfdAr+Yv+AP9Cb7OJ3H/2JG1HNGz/84klThPVCc=);strokeColor=none;strokeWidth=4;points=[];labelBackgroundColor=none;rounded=0;html=1;whiteSpace=wrap;" parent="1" vertex="1">
          <mxGeometry x="78" y="1118" width="68" height="20" as="geometry" />
        </mxCell>
        <mxCell id="vlENnQTwprv_Hxl43TQ9-30" value="&lt;div style=&quot;font-size: 1px&quot;&gt;&lt;p style=&quot;align:left;margin-left:0;margin-right:0;margin-top:0px;margin-bottom:0px;text-indent:0;valign:middle;direction:ltr;&quot;&gt;&lt;font style=&quot;font-size:11.29px;font-family:Arial;color:#000000;direction:ltr;letter-spacing:0px;line-height:120%;opacity:1&quot;&gt;&lt;i&gt;Т. контр.&lt;br/&gt;&lt;/i&gt;&lt;/font&gt;&lt;/p&gt;&lt;/div&gt;" style="verticalAlign=middle;align=left;vsdxID=143;fillColor=none;gradientColor=none;shape=stencil(nZBLDoAgDERP0z3SIyjew0SURgSD+Lu9kMZoXLhwN9O+tukAlrNpJg1SzDH4QW/URgNYgZTkjA4UkwJUgGXng+6DX1zLfmoymdXo17xh5zmRJ6Q42BWCfc2oJfdAr+Yv+AP9Cb7OJ3H/2JG1HNGz/84klThPVCc=);strokeColor=none;strokeWidth=4;points=[];labelBackgroundColor=none;rounded=0;html=1;whiteSpace=wrap;" parent="1" vertex="1">
          <mxGeometry x="78" y="1078" width="68" height="20" as="geometry" />
        </mxCell>
        <mxCell id="vlENnQTwprv_Hxl43TQ9-31" value="&lt;div style=&quot;font-size: 1px&quot;&gt;&lt;p style=&quot;align:left;margin-left:0;margin-right:0;margin-top:0px;margin-bottom:0px;text-indent:0;valign:middle;direction:ltr;&quot;&gt;&lt;font style=&quot;font-size:11.29px;font-family:Arial;color:#000000;direction:ltr;letter-spacing:0px;line-height:120%;opacity:1&quot;&gt;&lt;i&gt;Реценз.&lt;br/&gt;&lt;/i&gt;&lt;/font&gt;&lt;/p&gt;&lt;/div&gt;" style="verticalAlign=middle;align=left;vsdxID=144;fillColor=none;gradientColor=none;shape=stencil(nZBLDoAgDERP0z3SIyjew0SURgSD+Lu9kMZoXLhwN9O+tukAlrNpJg1SzDH4QW/URgNYgZTkjA4UkwJUgGXng+6DX1zLfmoymdXo17xh5zmRJ6Q42BWCfc2oJfdAr+Yv+AP9Cb7OJ3H/2JG1HNGz/84klThPVCc=);strokeColor=none;strokeWidth=4;points=[];labelBackgroundColor=none;rounded=0;html=1;whiteSpace=wrap;" parent="1" vertex="1">
          <mxGeometry x="78" y="1098" width="68" height="20" as="geometry" />
        </mxCell>
        <mxCell id="vlENnQTwprv_Hxl43TQ9-32" style="vsdxID=145;edgeStyle=none;startArrow=none;endArrow=none;startSize=5;endSize=5;strokeColor=#000000;spacingTop=0;spacingBottom=0;spacingLeft=0;spacingRight=0;verticalAlign=middle;html=1;labelBackgroundColor=none;rounded=0;" parent="1" edge="1">
          <mxGeometry relative="1" as="geometry">
            <mxPoint as="offset" />
            <Array as="points" />
            <mxPoint x="78" y="1118" as="sourcePoint" />
            <mxPoint x="338" y="1118" as="targetPoint" />
          </mxGeometry>
        </mxCell>
        <mxCell id="vlENnQTwprv_Hxl43TQ9-33" style="vsdxID=146;edgeStyle=none;startArrow=none;endArrow=none;startSize=5;endSize=5;strokeColor=#000000;spacingTop=0;spacingBottom=0;spacingLeft=0;spacingRight=0;verticalAlign=middle;html=1;labelBackgroundColor=none;rounded=0;" parent="1" edge="1">
          <mxGeometry relative="1" as="geometry">
            <Array as="points" />
            <mxPoint x="78" y="1098" as="sourcePoint" />
            <mxPoint x="338" y="1098" as="targetPoint" />
          </mxGeometry>
        </mxCell>
        <mxCell id="vlENnQTwprv_Hxl43TQ9-34" value="&lt;div style=&quot;font-size: 1px&quot;&gt;&lt;/div&gt;" style="text;vsdxID=146;edgeStyle=none;startArrow=none;endArrow=none;startSize=5;endSize=5;strokeColor=none;spacingTop=0;spacingBottom=0;spacingLeft=0;spacingRight=0;verticalAlign=middle;html=1;labelBackgroundColor=none;rounded=0;align=center;fillColor=none;gradientColor=none;whiteSpace=wrap;;html=1;;rotation=359.99999999999994" parent="vlENnQTwprv_Hxl43TQ9-33" vertex="1">
          <mxGeometry width="260" height="1" relative="1" as="geometry">
            <mxPoint x="-130" y="-0.5" as="offset" />
          </mxGeometry>
        </mxCell>
        <mxCell id="vlENnQTwprv_Hxl43TQ9-35" value="&lt;div style=&quot;font-size: 1px&quot;&gt;&lt;/div&gt;" style="vsdxID=147;edgeStyle=none;startArrow=none;endArrow=none;startSize=5;endSize=5;strokeColor=#000000;spacingTop=0;spacingBottom=0;spacingLeft=0;spacingRight=0;verticalAlign=middle;html=1;labelBackgroundColor=none;rounded=0;align=center;" parent="1" edge="1">
          <mxGeometry relative="1" as="geometry">
            <mxPoint as="offset" />
            <Array as="points" />
            <mxPoint x="76" y="1138" as="sourcePoint" />
            <mxPoint x="338" y="1138" as="targetPoint" />
          </mxGeometry>
        </mxCell>
        <mxCell id="vlENnQTwprv_Hxl43TQ9-36" value="&lt;div style=&quot;font-size: 1px&quot;&gt;&lt;p style=&quot;align:left;margin-left:0;margin-right:0;margin-top:0px;margin-bottom:0px;text-indent:0;valign:middle;direction:ltr;&quot;&gt;&lt;font style=&quot;font-size:11.29px;font-family:Arial;color:#000000;direction:ltr;letter-spacing:0px;line-height:120%;opacity:1&quot;&gt;&lt;i&gt;Утв.&lt;br/&gt;&lt;/i&gt;&lt;/font&gt;&lt;/p&gt;&lt;/div&gt;" style="verticalAlign=middle;align=left;vsdxID=148;fillColor=none;gradientColor=none;shape=stencil(nZBLDoAgDERP0z3SIyjew0SURgSD+Lu9kMZoXLhwN9O+tukAlrNpJg1SzDH4QW/URgNYgZTkjA4UkwJUgGXng+6DX1zLfmoymdXo17xh5zmRJ6Q42BWCfc2oJfdAr+Yv+AP9Cb7OJ3H/2JG1HNGz/84klThPVCc=);strokeColor=none;strokeWidth=4;points=[];labelBackgroundColor=none;rounded=0;html=1;whiteSpace=wrap;" parent="1" vertex="1">
          <mxGeometry x="78" y="1139" width="68" height="20" as="geometry" />
        </mxCell>
        <mxCell id="vlENnQTwprv_Hxl43TQ9-37" value="&lt;div style=&quot;&quot;&gt;&lt;p style=&quot;margin: 0px; text-indent: 0px; direction: ltr;&quot;&gt;&lt;font face=&quot;Arial Narrow&quot; style=&quot;color: rgb(0, 0, 0); direction: ltr; letter-spacing: 0px; line-height: 120%; opacity: 1;&quot;&gt;&lt;i style=&quot;font-size: 12.7px;&quot;&gt;Капуро&lt;/i&gt;&lt;/font&gt;&lt;/p&gt;&lt;/div&gt;" style="verticalAlign=middle;align=left;vsdxID=149;fillColor=none;gradientColor=none;shape=stencil(nZBLDoAgDERP0z3SIyjew0SURgSD+Lu9kMZoXLhwN9O+tukAlrNpJg1SzDH4QW/URgNYgZTkjA4UkwJUgGXng+6DX1zLfmoymdXo17xh5zmRJ6Q42BWCfc2oJfdAr+Yv+AP9Cb7OJ3H/2JG1HNGz/84klThPVCc=);strokeColor=none;strokeWidth=4;points=[];labelBackgroundColor=none;rounded=0;html=1;whiteSpace=wrap;" parent="1" vertex="1">
          <mxGeometry x="148" y="1058" width="90" height="20" as="geometry" />
        </mxCell>
        <mxCell id="vlENnQTwprv_Hxl43TQ9-38" value="&lt;div style=&quot;font-size: 1px&quot;&gt;&lt;font style=&quot;font-size: 25.4px; font-family: Arial; direction: ltr; letter-spacing: 0px; line-height: 120%; opacity: 1;&quot;&gt;&lt;i style=&quot;&quot;&gt;БГУИР КР 1-&lt;/i&gt;&lt;/font&gt;&lt;font style=&quot;font-size: 25.4px; font-family: Arial; direction: ltr; letter-spacing: 0px; line-height: 120%; opacity: 1;&quot;&gt;&lt;i style=&quot;&quot;&gt;45 01 01&lt;/i&gt;&lt;/font&gt;&lt;font style=&quot;font-size:25.4px;font-family:Arial;color:#000000;direction:ltr;letter-spacing:0px;line-height:120%;opacity:1&quot;&gt;&lt;i&gt; 013 Э2&lt;/i&gt;&lt;/font&gt;&lt;font style=&quot;font-size:25.4px;font-family:Arial;color:#000000;direction:ltr;letter-spacing:0px;line-height:120%;opacity:1&quot;&gt;&lt;i&gt;&lt;br&gt;&lt;/i&gt;&lt;/font&gt;&lt;/div&gt;" style="verticalAlign=middle;align=center;vsdxID=151;fillColor=none;gradientColor=none;shape=stencil(nZBLDoAgDERP0z3SIyjew0SURgSD+Lu9kMZoXLhwN9O+tukAlrNpJg1SzDH4QW/URgNYgZTkjA4UkwJUgGXng+6DX1zLfmoymdXo17xh5zmRJ6Q42BWCfc2oJfdAr+Yv+AP9Cb7OJ3H/2JG1HNGz/84klThPVCc=);strokeColor=none;strokeWidth=4;points=[];labelBackgroundColor=none;rounded=0;html=1;whiteSpace=wrap;" parent="1" vertex="1">
          <mxGeometry x="339" y="938" width="480" height="60" as="geometry" />
        </mxCell>
        <mxCell id="vlENnQTwprv_Hxl43TQ9-39" value="&lt;div style=&quot;font-size: 15px; line-height: 0.8;&quot;&gt;&lt;p style=&quot;align:center;margin-left:0;margin-right:0;margin-top:0px;margin-bottom:0px;text-indent:0;valign:middle;direction:ltr;&quot;&gt;&lt;font style=&quot;font-size: 15px; font-family: Arial; color: rgb(0, 0, 0); direction: ltr; letter-spacing: 0px; line-height: 150%; opacity: 1;&quot;&gt;Синхронный&amp;nbsp;&lt;/font&gt;&lt;/p&gt;&lt;p style=&quot;align:center;margin-left:0;margin-right:0;margin-top:0px;margin-bottom:0px;text-indent:0;valign:middle;direction:ltr;&quot;&gt;&lt;font style=&quot;font-size: 15px; font-family: Arial; color: rgb(0, 0, 0); direction: ltr; letter-spacing: 0px; line-height: 150%; opacity: 1;&quot;&gt;последовательный счетчик.&amp;nbsp;&lt;/font&gt;&lt;/p&gt;&lt;p style=&quot;align:center;margin-left:0;margin-right:0;margin-top:0px;margin-bottom:0px;text-indent:0;valign:middle;direction:ltr;&quot;&gt;&lt;font style=&quot;font-size: 15px; font-family: Arial; color: rgb(0, 0, 0); direction: ltr; letter-spacing: 0px; line-height: 150%; opacity: 1;&quot;&gt;Схема электрическая&lt;/font&gt;&lt;/p&gt;&lt;p style=&quot;align:center;margin-left:0;margin-right:0;margin-top:0px;margin-bottom:0px;text-indent:0;valign:middle;direction:ltr;&quot;&gt;&lt;font style=&quot;font-size: 15px; font-family: Arial; color: rgb(0, 0, 0); direction: ltr; letter-spacing: 0px; line-height: 150%; opacity: 1;&quot;&gt;функциональная&lt;br&gt;&lt;/font&gt;&lt;/p&gt;&lt;/div&gt;" style="verticalAlign=middle;align=center;vsdxID=152;fillColor=none;gradientColor=none;shape=stencil(nZBLDoAgDERP0z3SIyjew0SURgSD+Lu9kMZoXLhwN9O+tukAlrNpJg1SzDH4QW/URgNYgZTkjA4UkwJUgGXng+6DX1zLfmoymdXo17xh5zmRJ6Q42BWCfc2oJfdAr+Yv+AP9Cb7OJ3H/2JG1HNGz/84klThPVCc=);strokeColor=none;points=[];labelBackgroundColor=none;rounded=0;html=1;whiteSpace=wrap;" parent="1" vertex="1">
          <mxGeometry x="339" y="998" width="280" height="104" as="geometry" />
        </mxCell>
        <mxCell id="vlENnQTwprv_Hxl43TQ9-63" style="vsdxID=95;edgeStyle=none;startArrow=none;endArrow=none;startSize=5;endSize=5;strokeWidth=3;strokeColor=#000000;spacingTop=0;spacingBottom=0;spacingLeft=0;spacingRight=0;verticalAlign=middle;html=1;labelBackgroundColor=#ffffff;rounded=0;" parent="1" edge="1">
          <mxGeometry relative="1" as="geometry">
            <Array as="points" />
            <mxPoint x="78" y="1158" as="sourcePoint" />
            <mxPoint x="818" y="1158" as="targetPoint" />
          </mxGeometry>
        </mxCell>
        <mxCell id="vlENnQTwprv_Hxl43TQ9-64" style="vsdxID=96;edgeStyle=none;startArrow=none;endArrow=none;startSize=5;endSize=5;strokeWidth=3;strokeColor=#000000;spacingTop=0;spacingBottom=0;spacingLeft=0;spacingRight=0;verticalAlign=middle;html=1;labelBackgroundColor=#ffffff;rounded=0;" parent="1" edge="1">
          <mxGeometry relative="1" as="geometry">
            <Array as="points" />
            <mxPoint x="818" y="1158" as="sourcePoint" />
            <mxPoint x="818" y="11" as="targetPoint" />
          </mxGeometry>
        </mxCell>
        <mxCell id="vlENnQTwprv_Hxl43TQ9-65" style="vsdxID=98;edgeStyle=none;startArrow=none;endArrow=none;startSize=5;endSize=5;strokeWidth=3;strokeColor=#000000;spacingTop=0;spacingBottom=0;spacingLeft=0;spacingRight=0;verticalAlign=middle;html=1;labelBackgroundColor=#ffffff;rounded=0;" parent="1" edge="1">
          <mxGeometry relative="1" as="geometry">
            <Array as="points" />
            <mxPoint x="818" y="11" as="sourcePoint" />
            <mxPoint x="78" y="11" as="targetPoint" />
          </mxGeometry>
        </mxCell>
        <mxCell id="vlENnQTwprv_Hxl43TQ9-66" style="vsdxID=99;edgeStyle=none;startArrow=none;endArrow=none;startSize=5;endSize=5;strokeWidth=3;strokeColor=#000000;spacingTop=0;spacingBottom=0;spacingLeft=0;spacingRight=0;verticalAlign=middle;html=1;labelBackgroundColor=#ffffff;rounded=0;" parent="1" edge="1">
          <mxGeometry relative="1" as="geometry">
            <Array as="points" />
            <mxPoint x="78" y="11" as="sourcePoint" />
            <mxPoint x="78" y="1158" as="targetPoint" />
          </mxGeometry>
        </mxCell>
        <mxCell id="vlENnQTwprv_Hxl43TQ9-67" style="vsdxID=100;edgeStyle=none;startArrow=none;endArrow=none;startSize=5;endSize=5;strokeWidth=3;strokeColor=#000000;spacingTop=0;spacingBottom=0;spacingLeft=0;spacingRight=0;verticalAlign=middle;html=1;labelBackgroundColor=none;rounded=0;" parent="1" edge="1">
          <mxGeometry relative="1" as="geometry">
            <Array as="points" />
            <mxPoint x="818" y="938" as="sourcePoint" />
            <mxPoint x="78" y="938" as="targetPoint" />
          </mxGeometry>
        </mxCell>
        <mxCell id="vlENnQTwprv_Hxl43TQ9-68" style="vsdxID=101;edgeStyle=none;startArrow=none;endArrow=none;startSize=5;endSize=5;strokeWidth=3;strokeColor=#000000;spacingTop=0;spacingBottom=0;spacingLeft=0;spacingRight=0;verticalAlign=middle;html=1;labelBackgroundColor=none;rounded=0;" parent="1" edge="1">
          <mxGeometry relative="1" as="geometry">
            <Array as="points" />
            <mxPoint x="78" y="938" as="sourcePoint" />
            <mxPoint x="78" y="1158" as="targetPoint" />
          </mxGeometry>
        </mxCell>
        <mxCell id="vlENnQTwprv_Hxl43TQ9-69" style="vsdxID=102;edgeStyle=none;startArrow=none;endArrow=none;startSize=5;endSize=5;strokeWidth=3;strokeColor=#000000;spacingTop=0;spacingBottom=0;spacingLeft=0;spacingRight=0;verticalAlign=middle;html=1;labelBackgroundColor=none;rounded=0;" parent="1" edge="1">
          <mxGeometry relative="1" as="geometry">
            <Array as="points" />
            <mxPoint x="618" y="1158" as="sourcePoint" />
            <mxPoint x="618" y="998" as="targetPoint" />
          </mxGeometry>
        </mxCell>
        <mxCell id="vlENnQTwprv_Hxl43TQ9-70" style="vsdxID=103;edgeStyle=none;startArrow=none;endArrow=none;startSize=5;endSize=5;strokeWidth=3;strokeColor=#000000;spacingTop=0;spacingBottom=0;spacingLeft=0;spacingRight=0;verticalAlign=middle;html=1;labelBackgroundColor=none;rounded=0;" parent="1" edge="1">
          <mxGeometry relative="1" as="geometry">
            <Array as="points" />
            <mxPoint x="338" y="1158" as="sourcePoint" />
            <mxPoint x="338" y="938" as="targetPoint" />
          </mxGeometry>
        </mxCell>
        <mxCell id="vlENnQTwprv_Hxl43TQ9-71" style="vsdxID=104;edgeStyle=none;startArrow=none;endArrow=none;startSize=5;endSize=5;strokeWidth=3;strokeColor=#000000;spacingTop=0;spacingBottom=0;spacingLeft=0;spacingRight=0;verticalAlign=middle;html=1;labelBackgroundColor=none;rounded=0;" parent="1" edge="1">
          <mxGeometry relative="1" as="geometry">
            <Array as="points" />
            <mxPoint x="298" y="938" as="sourcePoint" />
            <mxPoint x="298" y="1158" as="targetPoint" />
          </mxGeometry>
        </mxCell>
        <mxCell id="vlENnQTwprv_Hxl43TQ9-72" style="vsdxID=105;edgeStyle=none;startArrow=none;endArrow=none;startSize=5;endSize=5;strokeWidth=3;strokeColor=#000000;spacingTop=0;spacingBottom=0;spacingLeft=0;spacingRight=0;verticalAlign=middle;html=1;labelBackgroundColor=none;rounded=0;" parent="1" edge="1">
          <mxGeometry relative="1" as="geometry">
            <Array as="points" />
            <mxPoint x="238" y="938" as="sourcePoint" />
            <mxPoint x="238" y="1158" as="targetPoint" />
          </mxGeometry>
        </mxCell>
        <mxCell id="vlENnQTwprv_Hxl43TQ9-73" style="vsdxID=106;edgeStyle=none;startArrow=none;endArrow=none;startSize=5;endSize=5;strokeWidth=3;strokeColor=#000000;spacingTop=0;spacingBottom=0;spacingLeft=0;spacingRight=0;verticalAlign=middle;html=1;labelBackgroundColor=none;rounded=0;" parent="1" edge="1">
          <mxGeometry relative="1" as="geometry">
            <Array as="points" />
            <mxPoint x="146" y="938" as="sourcePoint" />
            <mxPoint x="146" y="1158" as="targetPoint" />
          </mxGeometry>
        </mxCell>
        <mxCell id="vlENnQTwprv_Hxl43TQ9-74" style="vsdxID=107;edgeStyle=none;startArrow=none;endArrow=none;startSize=5;endSize=5;strokeWidth=3;strokeColor=#000000;spacingTop=0;spacingBottom=0;spacingLeft=0;spacingRight=0;verticalAlign=middle;html=1;labelBackgroundColor=none;rounded=0;" parent="1" edge="1">
          <mxGeometry relative="1" as="geometry">
            <Array as="points" />
            <mxPoint x="106" y="938" as="sourcePoint" />
            <mxPoint x="106" y="1038" as="targetPoint" />
          </mxGeometry>
        </mxCell>
        <mxCell id="vlENnQTwprv_Hxl43TQ9-75" style="vsdxID=108;edgeStyle=none;startArrow=none;endArrow=none;startSize=5;endSize=5;strokeWidth=3;strokeColor=#000000;spacingTop=0;spacingBottom=0;spacingLeft=0;spacingRight=0;verticalAlign=middle;html=1;labelBackgroundColor=none;rounded=0;" parent="1" edge="1">
          <mxGeometry relative="1" as="geometry">
            <mxPoint as="offset" />
            <Array as="points" />
            <mxPoint x="338" y="998" as="sourcePoint" />
            <mxPoint x="818" y="998" as="targetPoint" />
          </mxGeometry>
        </mxCell>
        <mxCell id="vlENnQTwprv_Hxl43TQ9-76" style="vsdxID=109;edgeStyle=none;startArrow=none;endArrow=none;startSize=5;endSize=5;strokeWidth=3;strokeColor=#000000;spacingTop=0;spacingBottom=0;spacingLeft=0;spacingRight=0;verticalAlign=middle;html=1;labelBackgroundColor=none;rounded=0;" parent="1" edge="1">
          <mxGeometry relative="1" as="geometry">
            <mxPoint as="offset" />
            <Array as="points" />
            <mxPoint x="618" y="1078" as="sourcePoint" />
            <mxPoint x="818" y="1078" as="targetPoint" />
          </mxGeometry>
        </mxCell>
        <mxCell id="vlENnQTwprv_Hxl43TQ9-77" style="vsdxID=110;edgeStyle=none;startArrow=none;endArrow=none;startSize=5;endSize=5;strokeWidth=3;strokeColor=#000000;spacingTop=0;spacingBottom=0;spacingLeft=0;spacingRight=0;verticalAlign=middle;html=1;labelBackgroundColor=none;rounded=0;" parent="1" edge="1">
          <mxGeometry relative="1" as="geometry">
            <mxPoint as="offset" />
            <Array as="points" />
            <mxPoint x="338" y="1098" as="sourcePoint" />
            <mxPoint x="818" y="1098" as="targetPoint" />
          </mxGeometry>
        </mxCell>
        <mxCell id="vlENnQTwprv_Hxl43TQ9-78" value="&lt;div style=&quot;font-size: 1px&quot;&gt;&lt;/div&gt;" style="vsdxID=111;edgeStyle=none;startArrow=none;endArrow=none;startSize=5;endSize=5;strokeColor=#000000;spacingTop=0;spacingBottom=0;spacingLeft=0;spacingRight=0;verticalAlign=middle;html=1;labelBackgroundColor=none;rounded=0;align=center;" parent="1" edge="1">
          <mxGeometry relative="1" as="geometry">
            <mxPoint as="offset" />
            <Array as="points" />
            <mxPoint x="78" y="958" as="sourcePoint" />
            <mxPoint x="338" y="958" as="targetPoint" />
          </mxGeometry>
        </mxCell>
        <mxCell id="vlENnQTwprv_Hxl43TQ9-79" style="vsdxID=112;edgeStyle=none;startArrow=none;endArrow=none;startSize=5;endSize=5;strokeColor=#000000;spacingTop=0;spacingBottom=0;spacingLeft=0;spacingRight=0;verticalAlign=middle;html=1;labelBackgroundColor=none;rounded=0;" parent="1" edge="1">
          <mxGeometry relative="1" as="geometry">
            <mxPoint as="offset" />
            <Array as="points" />
            <mxPoint x="78" y="1078" as="sourcePoint" />
            <mxPoint x="338" y="1078" as="targetPoint" />
          </mxGeometry>
        </mxCell>
        <mxCell id="vlENnQTwprv_Hxl43TQ9-80" style="vsdxID=113;edgeStyle=none;startArrow=none;endArrow=none;startSize=5;endSize=5;strokeColor=#000000;spacingTop=0;spacingBottom=0;spacingLeft=0;spacingRight=0;verticalAlign=middle;html=1;labelBackgroundColor=none;rounded=0;" parent="1" edge="1">
          <mxGeometry relative="1" as="geometry">
            <Array as="points" />
            <mxPoint x="638" y="1018" as="sourcePoint" />
            <mxPoint x="638" y="1078" as="targetPoint" />
          </mxGeometry>
        </mxCell>
        <mxCell id="vlENnQTwprv_Hxl43TQ9-81" value="&lt;div style=&quot;&quot;&gt;&lt;p style=&quot;margin: 0px; text-indent: 0px; direction: ltr;&quot;&gt;&lt;font face=&quot;Arial Narrow&quot; style=&quot;color: rgb(0, 0, 0); direction: ltr; letter-spacing: 0px; line-height: 120%; opacity: 1;&quot;&gt;&lt;i style=&quot;font-size: 12.7px;&quot;&gt;Цветков&lt;/i&gt;&lt;/font&gt;&lt;/p&gt;&lt;/div&gt;" style="verticalAlign=middle;align=left;vsdxID=149;fillColor=none;gradientColor=none;shape=stencil(nZBLDoAgDERP0z3SIyjew0SURgSD+Lu9kMZoXLhwN9O+tukAlrNpJg1SzDH4QW/URgNYgZTkjA4UkwJUgGXng+6DX1zLfmoymdXo17xh5zmRJ6Q42BWCfc2oJfdAr+Yv+AP9Cb7OJ3H/2JG1HNGz/84klThPVCc=);strokeColor=none;strokeWidth=4;points=[];labelBackgroundColor=none;rounded=0;html=1;whiteSpace=wrap;" parent="1" vertex="1">
          <mxGeometry x="148" y="1138" width="90" height="20" as="geometry" />
        </mxCell>
        <mxCell id="vlENnQTwprv_Hxl43TQ9-241" value="" style="group" parent="1" vertex="1" connectable="0">
          <mxGeometry x="174" y="630" width="240" height="220" as="geometry" />
        </mxCell>
        <mxCell id="vlENnQTwprv_Hxl43TQ9-215" value="T2&lt;br&gt;&lt;br&gt;&lt;br&gt;&lt;br&gt;&lt;br&gt;&lt;br&gt;&lt;br&gt;&lt;br&gt;&lt;br&gt;&lt;br&gt;&lt;br&gt;" style="rounded=0;whiteSpace=wrap;html=1;fontSize=15;horizontal=0;align=center;" parent="vlENnQTwprv_Hxl43TQ9-241" vertex="1">
          <mxGeometry y="70" width="240" height="70" as="geometry" />
        </mxCell>
        <mxCell id="vlENnQTwprv_Hxl43TQ9-218" value="&lt;font style=&quot;font-size: 16px;&quot;&gt;T&lt;br&gt;&lt;br&gt;&lt;br&gt;&lt;br&gt;&lt;br&gt;&lt;br&gt;&lt;br&gt;&lt;br&gt;C&lt;/font&gt;" style="rounded=0;whiteSpace=wrap;html=1;fontSize=15;align=center;horizontal=0;" parent="vlENnQTwprv_Hxl43TQ9-241" vertex="1">
          <mxGeometry y="140" width="240" height="30" as="geometry" />
        </mxCell>
        <mxCell id="vlENnQTwprv_Hxl43TQ9-279" value="Q2" style="text;html=1;align=center;verticalAlign=middle;resizable=0;points=[];autosize=1;strokeColor=none;fillColor=none;fontSize=16;horizontal=0;" parent="vlENnQTwprv_Hxl43TQ9-241" vertex="1">
          <mxGeometry x="16" y="40" width="40" height="20" as="geometry" />
        </mxCell>
        <mxCell id="vlENnQTwprv_Hxl43TQ9-286" value="" style="group" parent="vlENnQTwprv_Hxl43TQ9-241" vertex="1" connectable="0">
          <mxGeometry x="166" y="40" width="40" height="20" as="geometry" />
        </mxCell>
        <mxCell id="vlENnQTwprv_Hxl43TQ9-282" value="Q2" style="text;html=1;align=center;verticalAlign=middle;resizable=0;points=[];autosize=1;strokeColor=none;fillColor=none;fontSize=16;horizontal=0;" parent="vlENnQTwprv_Hxl43TQ9-286" vertex="1">
          <mxGeometry width="40" height="20" as="geometry" />
        </mxCell>
        <mxCell id="vlENnQTwprv_Hxl43TQ9-284" style="edgeStyle=orthogonalEdgeStyle;rounded=0;orthogonalLoop=1;jettySize=auto;html=1;fontSize=16;endArrow=none;endFill=0;entryX=0.258;entryY=-0.065;entryDx=0;entryDy=0;entryPerimeter=0;" parent="vlENnQTwprv_Hxl43TQ9-286" target="vlENnQTwprv_Hxl43TQ9-282" edge="1">
          <mxGeometry relative="1" as="geometry">
            <mxPoint x="10" y="10.010000000000005" as="targetPoint" />
            <Array as="points">
              <mxPoint x="10" y="20" />
              <mxPoint x="10" y="20" />
            </Array>
            <mxPoint x="10" y="20" as="sourcePoint" />
          </mxGeometry>
        </mxCell>
        <mxCell id="9zSbgVNiYblb7Dwgfz3Z-13" value="" style="endArrow=none;html=1;rounded=0;startSize=3;" edge="1" parent="vlENnQTwprv_Hxl43TQ9-241">
          <mxGeometry width="50" height="50" relative="1" as="geometry">
            <mxPoint x="196" y="170" as="sourcePoint" />
            <mxPoint x="186" y="160" as="targetPoint" />
            <Array as="points">
              <mxPoint x="206" y="180" />
              <mxPoint x="196" y="170" />
            </Array>
          </mxGeometry>
        </mxCell>
        <mxCell id="vlENnQTwprv_Hxl43TQ9-248" value="" style="group" parent="1" vertex="1" connectable="0">
          <mxGeometry x="174" y="360" width="246" height="220" as="geometry" />
        </mxCell>
        <mxCell id="vlENnQTwprv_Hxl43TQ9-251" value="T1&lt;br&gt;&lt;br&gt;&lt;br&gt;&lt;br&gt;&lt;br&gt;&lt;br&gt;&lt;br&gt;&lt;br&gt;&lt;br&gt;&lt;br&gt;&lt;br&gt;" style="rounded=0;whiteSpace=wrap;html=1;fontSize=15;horizontal=0;align=center;" parent="vlENnQTwprv_Hxl43TQ9-248" vertex="1">
          <mxGeometry y="70" width="240" height="70" as="geometry" />
        </mxCell>
        <mxCell id="vlENnQTwprv_Hxl43TQ9-253" style="edgeStyle=orthogonalEdgeStyle;rounded=0;orthogonalLoop=1;jettySize=auto;html=1;fontSize=16;endArrow=oval;endFill=1;startArrow=none;startFill=0;endSize=3;" parent="vlENnQTwprv_Hxl43TQ9-248" source="vlENnQTwprv_Hxl43TQ9-254" edge="1">
          <mxGeometry relative="1" as="geometry">
            <mxPoint x="276" y="220" as="targetPoint" />
            <Array as="points">
              <mxPoint x="196" y="220" />
            </Array>
          </mxGeometry>
        </mxCell>
        <mxCell id="vlENnQTwprv_Hxl43TQ9-254" value="&lt;font style=&quot;font-size: 16px;&quot;&gt;T&lt;br&gt;&lt;br&gt;&lt;br&gt;&lt;br&gt;&lt;br&gt;&lt;br&gt;&lt;br&gt;&lt;br&gt;C&lt;/font&gt;" style="rounded=0;whiteSpace=wrap;html=1;fontSize=15;align=center;horizontal=0;" parent="vlENnQTwprv_Hxl43TQ9-248" vertex="1">
          <mxGeometry y="140" width="240" height="30" as="geometry" />
        </mxCell>
        <mxCell id="vlENnQTwprv_Hxl43TQ9-280" value="Q1" style="text;html=1;align=center;verticalAlign=middle;resizable=0;points=[];autosize=1;strokeColor=none;fillColor=none;fontSize=16;horizontal=0;" parent="vlENnQTwprv_Hxl43TQ9-248" vertex="1">
          <mxGeometry x="16" y="40" width="30" height="30" as="geometry" />
        </mxCell>
        <mxCell id="vlENnQTwprv_Hxl43TQ9-287" value="" style="group" parent="vlENnQTwprv_Hxl43TQ9-248" vertex="1" connectable="0">
          <mxGeometry x="166" y="45" width="40" height="25" as="geometry" />
        </mxCell>
        <mxCell id="vlENnQTwprv_Hxl43TQ9-288" value="Q1" style="text;html=1;align=center;verticalAlign=middle;resizable=0;points=[];autosize=1;strokeColor=none;fillColor=none;fontSize=16;horizontal=0;" parent="vlENnQTwprv_Hxl43TQ9-287" vertex="1">
          <mxGeometry x="5" y="-5" width="30" height="30" as="geometry" />
        </mxCell>
        <mxCell id="vlENnQTwprv_Hxl43TQ9-289" style="edgeStyle=orthogonalEdgeStyle;rounded=0;orthogonalLoop=1;jettySize=auto;html=1;fontSize=16;endArrow=none;endFill=0;" parent="vlENnQTwprv_Hxl43TQ9-287" edge="1">
          <mxGeometry relative="1" as="geometry">
            <mxPoint x="10" as="targetPoint" />
            <Array as="points" />
            <mxPoint x="10" y="20" as="sourcePoint" />
          </mxGeometry>
        </mxCell>
        <mxCell id="9zSbgVNiYblb7Dwgfz3Z-14" value="" style="endArrow=none;html=1;rounded=0;startSize=3;" edge="1" parent="vlENnQTwprv_Hxl43TQ9-248">
          <mxGeometry width="50" height="50" relative="1" as="geometry">
            <mxPoint x="206" y="180" as="sourcePoint" />
            <mxPoint x="186" y="160" as="targetPoint" />
            <Array as="points">
              <mxPoint x="206" y="180" />
            </Array>
          </mxGeometry>
        </mxCell>
        <mxCell id="vlENnQTwprv_Hxl43TQ9-255" value="" style="group" parent="1" vertex="1" connectable="0">
          <mxGeometry x="174" y="80" width="240" height="220" as="geometry" />
        </mxCell>
        <mxCell id="vlENnQTwprv_Hxl43TQ9-258" value="T0&lt;br&gt;&lt;br&gt;&lt;br&gt;&lt;br&gt;&lt;br&gt;&lt;br&gt;&lt;br&gt;&lt;br&gt;&lt;br&gt;&lt;br&gt;&lt;br&gt;" style="rounded=0;whiteSpace=wrap;html=1;fontSize=15;horizontal=0;align=center;" parent="vlENnQTwprv_Hxl43TQ9-255" vertex="1">
          <mxGeometry y="70" width="240" height="70" as="geometry" />
        </mxCell>
        <mxCell id="vlENnQTwprv_Hxl43TQ9-261" value="&lt;font style=&quot;font-size: 16px;&quot;&gt;T&lt;br&gt;&lt;br&gt;&lt;br&gt;&lt;br&gt;&lt;br&gt;&lt;br&gt;&lt;br&gt;&lt;br&gt;C&lt;/font&gt;" style="rounded=0;whiteSpace=wrap;html=1;fontSize=15;align=center;horizontal=0;" parent="vlENnQTwprv_Hxl43TQ9-255" vertex="1">
          <mxGeometry y="140" width="240" height="30" as="geometry" />
        </mxCell>
        <mxCell id="vlENnQTwprv_Hxl43TQ9-281" value="Q0" style="text;html=1;align=center;verticalAlign=middle;resizable=0;points=[];autosize=1;strokeColor=none;fillColor=none;fontSize=16;horizontal=0;" parent="vlENnQTwprv_Hxl43TQ9-255" vertex="1">
          <mxGeometry x="16" y="40" width="30" height="30" as="geometry" />
        </mxCell>
        <mxCell id="vlENnQTwprv_Hxl43TQ9-290" value="" style="group" parent="vlENnQTwprv_Hxl43TQ9-255" vertex="1" connectable="0">
          <mxGeometry x="166" y="45" width="40" height="25" as="geometry" />
        </mxCell>
        <mxCell id="vlENnQTwprv_Hxl43TQ9-291" value="Q0" style="text;html=1;align=center;verticalAlign=middle;resizable=0;points=[];autosize=1;strokeColor=none;fillColor=none;fontSize=16;horizontal=0;" parent="vlENnQTwprv_Hxl43TQ9-290" vertex="1">
          <mxGeometry x="5" y="-5" width="30" height="30" as="geometry" />
        </mxCell>
        <mxCell id="vlENnQTwprv_Hxl43TQ9-292" style="edgeStyle=orthogonalEdgeStyle;rounded=0;orthogonalLoop=1;jettySize=auto;html=1;fontSize=16;endArrow=none;endFill=0;" parent="vlENnQTwprv_Hxl43TQ9-290" edge="1">
          <mxGeometry relative="1" as="geometry">
            <mxPoint x="10" as="targetPoint" />
            <Array as="points" />
            <mxPoint x="10" y="20" as="sourcePoint" />
          </mxGeometry>
        </mxCell>
        <mxCell id="9zSbgVNiYblb7Dwgfz3Z-15" value="" style="endArrow=none;html=1;rounded=0;startSize=3;" edge="1" parent="vlENnQTwprv_Hxl43TQ9-255">
          <mxGeometry width="50" height="50" relative="1" as="geometry">
            <mxPoint x="206" y="180" as="sourcePoint" />
            <mxPoint x="186" y="160" as="targetPoint" />
            <Array as="points">
              <mxPoint x="206" y="180" />
            </Array>
          </mxGeometry>
        </mxCell>
        <mxCell id="vlENnQTwprv_Hxl43TQ9-268" value="" style="group;rotation=-90;" parent="1" vertex="1" connectable="0">
          <mxGeometry x="490" y="540" width="150" height="170" as="geometry" />
        </mxCell>
        <mxCell id="vlENnQTwprv_Hxl43TQ9-214" value="1" style="rounded=0;whiteSpace=wrap;html=1;labelBorderColor=none;fontSize=18;fontColor=#000000;verticalAlign=top;rotation=-90;direction=west;" parent="vlENnQTwprv_Hxl43TQ9-268" vertex="1">
          <mxGeometry x="55" y="5" width="40" height="50" as="geometry" />
        </mxCell>
        <mxCell id="vlENnQTwprv_Hxl43TQ9-265" style="edgeStyle=orthogonalEdgeStyle;rounded=0;orthogonalLoop=1;jettySize=auto;html=1;fontSize=16;endArrow=none;endFill=0;" parent="vlENnQTwprv_Hxl43TQ9-268" source="vlENnQTwprv_Hxl43TQ9-262" edge="1">
          <mxGeometry relative="1" as="geometry">
            <mxPoint x="60" y="50" as="targetPoint" />
            <Array as="points">
              <mxPoint x="15" y="80" />
              <mxPoint x="60" y="80" />
            </Array>
          </mxGeometry>
        </mxCell>
        <mxCell id="vlENnQTwprv_Hxl43TQ9-262" value="&lt;span style=&quot;&quot;&gt;&amp;amp;&lt;/span&gt;" style="rounded=0;whiteSpace=wrap;html=1;labelBorderColor=none;fontSize=18;fontColor=#000000;verticalAlign=top;rotation=-90;direction=west;" parent="vlENnQTwprv_Hxl43TQ9-268" vertex="1">
          <mxGeometry x="-5" y="114" width="40" height="50" as="geometry" />
        </mxCell>
        <mxCell id="vlENnQTwprv_Hxl43TQ9-266" style="edgeStyle=orthogonalEdgeStyle;rounded=0;orthogonalLoop=1;jettySize=auto;html=1;entryX=1;entryY=0.5;entryDx=0;entryDy=0;fontSize=16;endArrow=none;endFill=0;" parent="vlENnQTwprv_Hxl43TQ9-268" source="vlENnQTwprv_Hxl43TQ9-263" target="vlENnQTwprv_Hxl43TQ9-214" edge="1">
          <mxGeometry relative="1" as="geometry" />
        </mxCell>
        <mxCell id="vlENnQTwprv_Hxl43TQ9-263" value="&lt;span style=&quot;&quot;&gt;&amp;amp;&lt;/span&gt;" style="rounded=0;whiteSpace=wrap;html=1;labelBorderColor=none;fontSize=18;fontColor=#000000;verticalAlign=top;rotation=-90;direction=west;" parent="vlENnQTwprv_Hxl43TQ9-268" vertex="1">
          <mxGeometry x="55" y="115" width="40" height="50" as="geometry" />
        </mxCell>
        <mxCell id="vlENnQTwprv_Hxl43TQ9-267" style="edgeStyle=orthogonalEdgeStyle;rounded=0;orthogonalLoop=1;jettySize=auto;html=1;fontSize=16;entryX=1.001;entryY=0.192;entryDx=0;entryDy=0;entryPerimeter=0;endArrow=none;endFill=0;" parent="vlENnQTwprv_Hxl43TQ9-268" source="vlENnQTwprv_Hxl43TQ9-264" target="vlENnQTwprv_Hxl43TQ9-214" edge="1">
          <mxGeometry relative="1" as="geometry">
            <mxPoint x="91" y="78" as="targetPoint" />
            <Array as="points">
              <mxPoint x="135" y="80" />
              <mxPoint x="90" y="80" />
            </Array>
          </mxGeometry>
        </mxCell>
        <mxCell id="vlENnQTwprv_Hxl43TQ9-264" value="&lt;span style=&quot;&quot;&gt;&amp;amp;&lt;/span&gt;" style="rounded=0;whiteSpace=wrap;html=1;labelBorderColor=none;fontSize=18;fontColor=#000000;verticalAlign=top;rotation=-90;direction=west;" parent="vlENnQTwprv_Hxl43TQ9-268" vertex="1">
          <mxGeometry x="115" y="114" width="40" height="50" as="geometry" />
        </mxCell>
        <mxCell id="9zSbgVNiYblb7Dwgfz3Z-7" value="D3" style="text;html=1;align=center;verticalAlign=middle;resizable=0;points=[];autosize=1;strokeColor=none;fillColor=none;fontSize=16;horizontal=0;" vertex="1" parent="vlENnQTwprv_Hxl43TQ9-268">
          <mxGeometry x="50" y="90" width="30" height="30" as="geometry" />
        </mxCell>
        <mxCell id="9zSbgVNiYblb7Dwgfz3Z-8" value="D4" style="text;html=1;align=center;verticalAlign=middle;resizable=0;points=[];autosize=1;strokeColor=none;fillColor=none;fontSize=16;horizontal=0;" vertex="1" parent="vlENnQTwprv_Hxl43TQ9-268">
          <mxGeometry x="110" y="90" width="30" height="30" as="geometry" />
        </mxCell>
        <mxCell id="9zSbgVNiYblb7Dwgfz3Z-10" value="D6" style="text;html=1;align=center;verticalAlign=middle;resizable=0;points=[];autosize=1;strokeColor=none;fillColor=none;fontSize=16;horizontal=0;" vertex="1" parent="vlENnQTwprv_Hxl43TQ9-268">
          <mxGeometry x="20" y="15" width="30" height="30" as="geometry" />
        </mxCell>
        <mxCell id="vlENnQTwprv_Hxl43TQ9-269" style="edgeStyle=orthogonalEdgeStyle;rounded=0;orthogonalLoop=1;jettySize=auto;html=1;fontSize=16;exitX=1.007;exitY=0.891;exitDx=0;exitDy=0;exitPerimeter=0;endArrow=oval;endFill=1;endSize=3;" parent="1" source="vlENnQTwprv_Hxl43TQ9-263" edge="1">
          <mxGeometry relative="1" as="geometry">
            <mxPoint x="546" y="760" as="targetPoint" />
            <Array as="points">
              <mxPoint x="546" y="730" />
              <mxPoint x="546" y="730" />
              <mxPoint x="546" y="760" />
            </Array>
          </mxGeometry>
        </mxCell>
        <mxCell id="vlENnQTwprv_Hxl43TQ9-226" style="edgeStyle=orthogonalEdgeStyle;rounded=0;orthogonalLoop=1;jettySize=auto;html=1;fontSize=16;endArrow=none;endFill=0;entryX=0.993;entryY=0.808;entryDx=0;entryDy=0;entryPerimeter=0;startArrow=oval;startFill=0;" parent="1" source="vlENnQTwprv_Hxl43TQ9-215" target="vlENnQTwprv_Hxl43TQ9-262" edge="1">
          <mxGeometry relative="1" as="geometry">
            <mxPoint x="490" y="700" as="targetPoint" />
            <Array as="points">
              <mxPoint x="370" y="680" />
              <mxPoint x="440" y="680" />
              <mxPoint x="440" y="720" />
              <mxPoint x="490" y="720" />
            </Array>
          </mxGeometry>
        </mxCell>
        <mxCell id="vlENnQTwprv_Hxl43TQ9-256" style="edgeStyle=orthogonalEdgeStyle;rounded=0;orthogonalLoop=1;jettySize=auto;html=1;fontSize=16;endArrow=none;endFill=0;entryX=1.007;entryY=0.21;entryDx=0;entryDy=0;entryPerimeter=0;" parent="1" source="vlENnQTwprv_Hxl43TQ9-258" target="vlENnQTwprv_Hxl43TQ9-262" edge="1">
          <mxGeometry relative="1" as="geometry">
            <mxPoint x="520" y="710" as="targetPoint" />
            <Array as="points">
              <mxPoint x="214" y="70" />
              <mxPoint x="720" y="70" />
              <mxPoint x="720" y="760" />
              <mxPoint x="520" y="760" />
            </Array>
          </mxGeometry>
        </mxCell>
        <mxCell id="vlENnQTwprv_Hxl43TQ9-257" style="edgeStyle=orthogonalEdgeStyle;rounded=0;orthogonalLoop=1;jettySize=auto;html=1;fontSize=16;endArrow=none;endFill=0;startArrow=oval;startFill=0;" parent="1" source="vlENnQTwprv_Hxl43TQ9-258" edge="1">
          <mxGeometry relative="1" as="geometry">
            <mxPoint x="610" y="699" as="targetPoint" />
            <Array as="points">
              <mxPoint x="370" y="80" />
              <mxPoint x="710" y="80" />
              <mxPoint x="710" y="750" />
              <mxPoint x="610" y="750" />
            </Array>
          </mxGeometry>
        </mxCell>
        <mxCell id="vlENnQTwprv_Hxl43TQ9-225" style="edgeStyle=orthogonalEdgeStyle;rounded=0;orthogonalLoop=1;jettySize=auto;html=1;fontSize=16;endArrow=none;endFill=0;" parent="1" source="vlENnQTwprv_Hxl43TQ9-215" edge="1">
          <mxGeometry relative="1" as="geometry">
            <mxPoint x="640" y="699" as="targetPoint" />
            <Array as="points">
              <mxPoint x="220" y="630" />
              <mxPoint x="480" y="630" />
              <mxPoint x="480" y="520" />
              <mxPoint x="680" y="520" />
              <mxPoint x="680" y="730" />
              <mxPoint x="640" y="730" />
            </Array>
          </mxGeometry>
        </mxCell>
        <mxCell id="vlENnQTwprv_Hxl43TQ9-249" style="edgeStyle=orthogonalEdgeStyle;rounded=0;orthogonalLoop=1;jettySize=auto;html=1;fontSize=16;entryX=1;entryY=0.25;entryDx=0;entryDy=0;endArrow=none;endFill=0;" parent="1" source="vlENnQTwprv_Hxl43TQ9-251" target="vlENnQTwprv_Hxl43TQ9-263" edge="1">
          <mxGeometry relative="1" as="geometry">
            <mxPoint x="580" y="740" as="targetPoint" />
            <Array as="points">
              <mxPoint x="220" y="350" />
              <mxPoint x="700" y="350" />
              <mxPoint x="700" y="740" />
              <mxPoint x="578" y="740" />
            </Array>
          </mxGeometry>
        </mxCell>
        <mxCell id="vlENnQTwprv_Hxl43TQ9-271" style="edgeStyle=orthogonalEdgeStyle;rounded=0;orthogonalLoop=1;jettySize=auto;html=1;fontSize=16;endArrow=none;endFill=0;endSize=3;entryX=0.194;entryY=1;entryDx=0;entryDy=0;entryPerimeter=0;" parent="1" source="vlENnQTwprv_Hxl43TQ9-214" target="vlENnQTwprv_Hxl43TQ9-254" edge="1">
          <mxGeometry relative="1" as="geometry">
            <mxPoint x="210" y="580" as="targetPoint" />
            <Array as="points">
              <mxPoint x="565" y="530" />
              <mxPoint x="470" y="530" />
              <mxPoint x="470" y="600" />
              <mxPoint x="220" y="600" />
              <mxPoint x="220" y="580" />
              <mxPoint x="221" y="580" />
            </Array>
          </mxGeometry>
        </mxCell>
        <mxCell id="vlENnQTwprv_Hxl43TQ9-272" style="edgeStyle=orthogonalEdgeStyle;rounded=0;orthogonalLoop=1;jettySize=auto;html=1;fontSize=16;endArrow=none;endFill=0;endSize=3;entryX=0.192;entryY=1.003;entryDx=0;entryDy=0;entryPerimeter=0;startArrow=oval;startFill=1;startSize=3;" parent="1" target="vlENnQTwprv_Hxl43TQ9-218" edge="1">
          <mxGeometry relative="1" as="geometry">
            <mxPoint x="220" y="820" as="targetPoint" />
            <mxPoint x="370" y="80" as="sourcePoint" />
            <Array as="points">
              <mxPoint x="130" y="80" />
              <mxPoint x="130" y="830" />
              <mxPoint x="220" y="830" />
            </Array>
          </mxGeometry>
        </mxCell>
        <mxCell id="vlENnQTwprv_Hxl43TQ9-277" style="edgeStyle=orthogonalEdgeStyle;rounded=0;orthogonalLoop=1;jettySize=auto;html=1;fontSize=16;endArrow=oval;endFill=1;endSize=3;exitX=1;exitY=0.75;exitDx=0;exitDy=0;" parent="1" source="vlENnQTwprv_Hxl43TQ9-276" edge="1">
          <mxGeometry relative="1" as="geometry">
            <mxPoint x="130" y="340" as="targetPoint" />
            <Array as="points">
              <mxPoint x="206" y="340" />
            </Array>
          </mxGeometry>
        </mxCell>
        <mxCell id="vlENnQTwprv_Hxl43TQ9-278" style="edgeStyle=orthogonalEdgeStyle;rounded=0;orthogonalLoop=1;jettySize=auto;html=1;fontSize=16;endArrow=none;endFill=0;endSize=3;" parent="1" source="vlENnQTwprv_Hxl43TQ9-276" edge="1">
          <mxGeometry relative="1" as="geometry">
            <mxPoint x="218" y="250" as="targetPoint" />
          </mxGeometry>
        </mxCell>
        <mxCell id="vlENnQTwprv_Hxl43TQ9-276" value="1" style="rounded=0;whiteSpace=wrap;html=1;labelBorderColor=none;fontSize=18;fontColor=#000000;verticalAlign=top;rotation=-90;direction=west;" parent="1" vertex="1">
          <mxGeometry x="198" y="280" width="40" height="50" as="geometry" />
        </mxCell>
        <mxCell id="vlENnQTwprv_Hxl43TQ9-250" style="edgeStyle=orthogonalEdgeStyle;rounded=0;orthogonalLoop=1;jettySize=auto;html=1;fontSize=16;entryX=1;entryY=0.25;entryDx=0;entryDy=0;endArrow=none;endFill=0;startArrow=oval;startFill=0;" parent="1" source="vlENnQTwprv_Hxl43TQ9-251" target="vlENnQTwprv_Hxl43TQ9-276" edge="1">
          <mxGeometry relative="1" as="geometry">
            <mxPoint x="230" y="340" as="targetPoint" />
            <Array as="points">
              <mxPoint x="370" y="340" />
              <mxPoint x="230" y="340" />
            </Array>
          </mxGeometry>
        </mxCell>
        <mxCell id="vlENnQTwprv_Hxl43TQ9-224" style="edgeStyle=orthogonalEdgeStyle;rounded=0;orthogonalLoop=1;jettySize=auto;html=1;fontSize=16;endArrow=none;endFill=0;" parent="1" source="vlENnQTwprv_Hxl43TQ9-218" edge="1">
          <mxGeometry relative="1" as="geometry">
            <mxPoint x="370" y="250" as="targetPoint" />
            <Array as="points">
              <mxPoint x="370" y="830" />
              <mxPoint x="450" y="830" />
              <mxPoint x="450" y="290" />
              <mxPoint x="370" y="290" />
            </Array>
          </mxGeometry>
        </mxCell>
        <mxCell id="vlENnQTwprv_Hxl43TQ9-296" style="edgeStyle=orthogonalEdgeStyle;rounded=0;orthogonalLoop=1;jettySize=auto;html=1;fontSize=16;startArrow=none;startFill=0;endArrow=oval;endFill=1;startSize=3;endSize=3;" parent="1" source="vlENnQTwprv_Hxl43TQ9-293" edge="1">
          <mxGeometry relative="1" as="geometry">
            <mxPoint x="480" y="520" as="targetPoint" />
          </mxGeometry>
        </mxCell>
        <mxCell id="vlENnQTwprv_Hxl43TQ9-293" value="Q2" style="text;html=1;align=center;verticalAlign=middle;resizable=0;points=[];autosize=1;strokeColor=none;fillColor=none;fontSize=16;rotation=-90;" parent="1" vertex="1">
          <mxGeometry x="623" y="460" width="40" height="20" as="geometry" />
        </mxCell>
        <mxCell id="vlENnQTwprv_Hxl43TQ9-299" style="edgeStyle=orthogonalEdgeStyle;rounded=0;orthogonalLoop=1;jettySize=auto;html=1;fontSize=16;startArrow=none;startFill=0;endArrow=oval;endFill=1;startSize=3;endSize=3;" parent="1" source="vlENnQTwprv_Hxl43TQ9-294" edge="1">
          <mxGeometry relative="1" as="geometry">
            <mxPoint x="480" y="350" as="targetPoint" />
          </mxGeometry>
        </mxCell>
        <mxCell id="vlENnQTwprv_Hxl43TQ9-294" value="Q1" style="text;html=1;align=center;verticalAlign=middle;resizable=0;points=[];autosize=1;strokeColor=none;fillColor=none;fontSize=16;rotation=-90;" parent="1" vertex="1">
          <mxGeometry x="623" y="420" width="40" height="20" as="geometry" />
        </mxCell>
        <mxCell id="vlENnQTwprv_Hxl43TQ9-300" style="edgeStyle=orthogonalEdgeStyle;rounded=0;orthogonalLoop=1;jettySize=auto;html=1;fontSize=16;startArrow=none;startFill=0;endArrow=oval;endFill=1;startSize=3;endSize=3;" parent="1" source="vlENnQTwprv_Hxl43TQ9-295" edge="1">
          <mxGeometry relative="1" as="geometry">
            <mxPoint x="720" y="390" as="targetPoint" />
          </mxGeometry>
        </mxCell>
        <mxCell id="vlENnQTwprv_Hxl43TQ9-295" value="Q0" style="text;html=1;align=center;verticalAlign=middle;resizable=0;points=[];autosize=1;strokeColor=none;fillColor=none;fontSize=16;rotation=-90;" parent="1" vertex="1">
          <mxGeometry x="623" y="380" width="40" height="20" as="geometry" />
        </mxCell>
        <mxCell id="9zSbgVNiYblb7Dwgfz3Z-3" style="edgeStyle=orthogonalEdgeStyle;rounded=0;orthogonalLoop=1;jettySize=auto;html=1;endArrow=none;endFill=0;startArrow=oval;startFill=1;startSize=3;" edge="1" parent="1">
          <mxGeometry relative="1" as="geometry">
            <mxPoint x="450" y="920" as="targetPoint" />
            <mxPoint x="450" y="830" as="sourcePoint" />
            <Array as="points">
              <mxPoint x="450" y="850" />
              <mxPoint x="450" y="850" />
            </Array>
          </mxGeometry>
        </mxCell>
        <mxCell id="9zSbgVNiYblb7Dwgfz3Z-4" value="CLK" style="text;html=1;align=center;verticalAlign=middle;resizable=0;points=[];autosize=1;strokeColor=none;fillColor=none;rotation=-90;" vertex="1" parent="1">
          <mxGeometry x="420" y="890" width="40" height="20" as="geometry" />
        </mxCell>
        <mxCell id="9zSbgVNiYblb7Dwgfz3Z-5" value="D1" style="text;html=1;align=center;verticalAlign=middle;resizable=0;points=[];autosize=1;strokeColor=none;fillColor=none;fontSize=16;horizontal=0;" vertex="1" parent="1">
          <mxGeometry x="145" y="735" width="30" height="30" as="geometry" />
        </mxCell>
        <mxCell id="9zSbgVNiYblb7Dwgfz3Z-6" value="D2" style="text;html=1;align=center;verticalAlign=middle;resizable=0;points=[];autosize=1;strokeColor=none;fillColor=none;fontSize=16;horizontal=0;" vertex="1" parent="1">
          <mxGeometry x="455" y="664" width="30" height="30" as="geometry" />
        </mxCell>
        <mxCell id="9zSbgVNiYblb7Dwgfz3Z-9" value="D7" style="text;html=1;align=center;verticalAlign=middle;resizable=0;points=[];autosize=1;strokeColor=none;fillColor=none;fontSize=16;horizontal=0;" vertex="1" parent="1">
          <mxGeometry x="145" y="460" width="30" height="30" as="geometry" />
        </mxCell>
        <mxCell id="9zSbgVNiYblb7Dwgfz3Z-11" value="D8" style="text;html=1;align=center;verticalAlign=middle;resizable=0;points=[];autosize=1;strokeColor=none;fillColor=none;fontSize=16;horizontal=0;" vertex="1" parent="1">
          <mxGeometry x="160" y="290" width="30" height="30" as="geometry" />
        </mxCell>
        <mxCell id="9zSbgVNiYblb7Dwgfz3Z-12" value="D9" style="text;html=1;align=center;verticalAlign=middle;resizable=0;points=[];autosize=1;strokeColor=none;fillColor=none;fontSize=16;horizontal=0;" vertex="1" parent="1">
          <mxGeometry x="146" y="180" width="30" height="30" as="geometry" />
        </mxCell>
      </root>
    </mxGraphModel>
  </diagram>
</mxfile>
